<svg version="1.1" id="Layer_1" xmlns="http://www.w3.org/2000/svg" xmlns:xlink="http://www.w3.org/1999/xlink" x="0px" y="0px"
	 width="100%" viewBox="0 0 66 66" enable-background="new 0 0 66 66" xml:space="preserve">
<path fill="#FCFCFC" opacity="1.000000" stroke="none" 
	d="
M43.000072,67.000000 
	C28.692966,67.000000 14.885878,67.000000 1.039395,67.000000 
	C1.039395,45.068062 1.039395,23.136036 1.039395,1.102005 
	C22.889833,1.102005 44.780300,1.102005 66.835388,1.102005 
	C66.835388,22.998989 66.835388,44.999397 66.835388,67.000000 
	C59.136963,67.000000 51.318527,67.000000 43.000072,67.000000 
M44.639618,57.041000 
	C47.263760,63.363827 52.599911,60.373009 57.867710,61.053429 
	C50.692558,50.773006 43.994553,41.176231 37.325699,31.621222 
	C43.799824,22.363842 50.017551,13.473084 56.213253,4.613827 
	C48.399963,2.151019 44.155910,5.307702 41.003834,11.641297 
	C38.547413,16.577076 35.139740,21.039440 31.888384,26.129263 
	C27.950953,20.024651 24.523144,14.719177 21.104641,9.407715 
	C17.204515,3.347935 15.269983,2.673834 7.742202,4.881838 
	C13.946666,13.776646 20.120852,22.628046 26.470263,31.730654 
	C19.855553,41.298542 13.274796,50.817318 6.580766,60.499943 
	C15.933937,61.787838 15.933384,61.787472 20.595598,54.745586 
	C24.235739,49.247452 27.877478,43.750374 31.885923,37.698067 
	C36.205261,44.277588 40.196835,50.357830 44.639618,57.041000 
z"/>
<path fill="#0A070A" opacity="1.000000" stroke="none" 
	d="
M44.414013,56.739536 
	C40.196835,50.357830 36.205261,44.277588 31.885923,37.698067 
	C27.877478,43.750374 24.235739,49.247452 20.595598,54.745586 
	C15.933384,61.787472 15.933937,61.787838 6.580766,60.499943 
	C13.274796,50.817318 19.855553,41.298542 26.470263,31.730654 
	C20.120852,22.628046 13.946666,13.776646 7.742202,4.881838 
	C15.269983,2.673834 17.204515,3.347935 21.104641,9.407715 
	C24.523144,14.719177 27.950953,20.024651 31.888384,26.129263 
	C35.139740,21.039440 38.547413,16.577076 41.003834,11.641297 
	C44.155910,5.307702 48.399963,2.151019 56.213253,4.613827 
	C50.017551,13.473084 43.799824,22.363842 37.325699,31.621222 
	C43.994553,41.176231 50.692558,50.773006 57.867710,61.053429 
	C52.599911,60.373009 47.263760,63.363827 44.414013,56.739536 
z"/>
</svg>